<svg width="200" height="105" xmlns="http://www.w3.org/2000/svg" xmlns:xlink="http://www.w3.org/1999/xlink">
 <defs>
  <clipPath id="clipPath3783" clipPathUnits="userSpaceOnUse">
   <rect fill="#ebe2b9" y="141.20459" x="849.53827" height="148.49243" width="259.60919" id="rect3785"/>
  </clipPath>
  <clipPath id="clipPath3809" clipPathUnits="userSpaceOnUse">
   <rect fill="#e9c200" y="3.076468" x="380" height="97.857162" width="211.42863" id="rect3811"/>
  </clipPath>
  <filter color-interpolation-filters="sRGB" height="1.475293" y="-0.237646" width="1.475293" x="-0.237646" id="filter4050">
   <feGaussianBlur id="feGaussianBlur4052" stdDeviation="0.367612"/>
  </filter>
  <filter color-interpolation-filters="sRGB" height="1.475293" y="-0.237646" width="1.475293" x="-0.237646" id="filter4054">
   <feGaussianBlur id="feGaussianBlur4056" stdDeviation="0.367612"/>
  </filter>
  <filter color-interpolation-filters="sRGB" height="1.681256" y="-0.340628" width="1.17049" x="-0.085245" id="filter4092">
   <feGaussianBlur id="feGaussianBlur4094" stdDeviation="4.407771"/>
  </filter>
  <filter color-interpolation-filters="sRGB" height="2.232079" y="-0.616039" width="1.350259" x="-0.175129" id="filter4155">
   <feGaussianBlur id="feGaussianBlur4157" stdDeviation="5.966776"/>
  </filter>
  <filter color-interpolation-filters="sRGB" height="1.924059" y="-0.46203" width="1.262694" x="-0.131347" id="filter4161">
   <feGaussianBlur id="feGaussianBlur4163" stdDeviation="4.475082"/>
  </filter>
  <filter color-interpolation-filters="sRGB" height="6.065873" y="-2.532936" width="1.20822" x="-0.10411" id="filter4215">
   <feGaussianBlur id="feGaussianBlur4217" stdDeviation="4.355677"/>
  </filter>
  <linearGradient id="linearGradient3956">
   <stop stop-color="#000000" stop-opacity="0" id="stop3958" offset="0"/>
   <stop stop-color="#000000" stop-opacity="0" offset="0.703767" id="stop3966"/>
   <stop stop-color="#000000" stop-opacity="0.295858" id="stop3978" offset="0.851884"/>
   <stop stop-color="#000000" stop-opacity="0.893491" id="stop3960" offset="1"/>
  </linearGradient>
  <radialGradient r="12.5" fy="262.40863" fx="376.73306" cy="262.40863" cx="376.73306" gradientTransform="matrix(0.99867774,-0.05140785,0.05932912,1.152561,-15.39543,-21.999422)" gradientUnits="userSpaceOnUse" id="radialGradient4322" xlink:href="#linearGradient3956"/>
  <radialGradient r="12.5" fy="264.14789" fx="371.42856" cy="264.14789" cx="371.42856" gradientUnits="userSpaceOnUse" id="radialGradient4324" xlink:href="#linearGradient3956"/>
 </defs>
 <metadata id="metadata7">image/svg+xml</metadata>
 <g>
  <title>background</title>
  <rect fill="none" id="canvas_background" height="107" width="202" y="-1" x="-1"/>
 </g>
 <g>
  <title>Layer 1</title>
  <g id="layer1">
   <g fill="#c33600" id="layer1-2">
    <g fill="#c33600" id="g4151">
     <path fill="#c33600" fill-rule="nonzero" stroke-width="0.149999" stroke-miterlimit="4" id="rect3403-7" d="m177.499399,56.770501c-6.84367,0.60008 -8.20292,4.28381 -8.20292,4.28381l1.67035,3.6943c0,0 2.08954,-3.79417 6.86487,-3.61539c4.77533,0.17878 6.24821,3.15259 6.16245,6.51883c-10.19868,-0.12457 -15.14642,-0.37038 -15.2596,8.52513c0.007,1.64894 0.2063,8.23735 8.28823,8.04055c5.21458,-0.12698 6.96439,-4.0957 6.96439,-4.0957c0,0 0.0708,-0.20433 0.0601,4.0957c2.10145,-0.0624 2.07959,0.0142 4.22874,0c-0.0634,-4.66021 0.0781,-9.08013 0,-16.56568c-0.1214,-1.74274 -0.10968,-11.02612 -10.77692,-10.88158l0.00031,0.00003zm6.48971,15.70992c0,0 -1.11824,7.54014 -6.80537,7.55612c-2.59241,0.0169 -4.23662,-1.29694 -4.17013,-4.2322c0.12076,-5.33139 10.9755,-3.32392 10.9755,-3.32392z"/>
     <path fill="#c33600" fill-rule="nonzero" stroke-width="0.2" stroke-miterlimit="4" id="rect4209-5" d="m123.215479,41.448281c7.68807,-0.25538 11.01817,3.85323 11.01817,3.85323l-2.3038,4.50743c0,0 -4.66291,-2.38407 -8.36379,-2.40366c-0.92522,-0.005 -6.30263,-0.20252 -6.16109,3.88066c0.2319,6.68981 17.77989,4.64707 17.51928,16.82085c-0.0269,1.25412 -0.64156,8.86708 -12.01732,8.97349c-5.89572,0.0551 -15.05633,-5.45506 -15.81393,-5.59666c-0.37881,-0.0708 3.18214,-4.2195 3.18214,-4.2195c0,0 7.65367,4.477 12.1628,4.58116c4.50914,0.10416 6.36556,-3.35286 6.35935,-4.34272c-0.0412,-6.56128 -17.01572,-5.07775 -17.30114,-16.39147c-0.0911,-3.61114 1.62483,-9.32748 11.71933,-9.66281z"/>
     <path fill="#c33600" fill-rule="nonzero" stroke-width="0.2" stroke-miterlimit="4" id="rect4209-3-3" d="m99.090659,41.448281c7.68807,-0.25538 11.01817,4.03783 11.01817,4.03783l-2.3038,4.50743c0,0 -4.66291,-2.56867 -8.36379,-2.58826c-0.92522,-0.005 -6.30263,-0.0179 -6.16109,4.06526c0.2319,6.68981 17.77989,4.64707 17.51928,16.82085c-0.0269,1.25412 -0.64156,8.68248 -12.01732,8.78889c-5.89572,0.0551 -15.15781,-5.37194 -15.91541,-5.51354c-0.37881,-0.0708 2.35994,-4.26153 2.35994,-4.26153c0,0 8.57735,4.43591 13.08648,4.54007c4.50914,0.10416 6.36556,-3.16826 6.35935,-4.15812c-0.0412,-6.56128 -17.01572,-5.07775 -17.30114,-16.39147c-0.0911,-3.61114 1.62483,-9.51208 11.71933,-9.84741z"/>
     <path fill="#c33600" fill-rule="nonzero" stroke-width="0.2" stroke-miterlimit="4" id="path4228-5" d="m69.242799,41.447701c-11.29709,-0.23625 -18.35264,7.01348 -18.30274,17.49219c0.0498,10.47871 6.60591,18.16253 18.48242,18.14063c11.87653,-0.022 18.1544,-7.5113 17.77344,-17.78711c-0.381,-10.27583 -6.65604,-17.60952 -17.95312,-17.84571zm-0.20508,5.95704c7.30342,0.16374 11.36112,5.24804 11.60742,12.37109c0.24629,7.12306 -3.81221,12.05507 -11.49023,12.07031c-7.67802,0.0152 -11.91507,-5.05271 -11.94727,-12.3164c-0.0322,-7.26369 4.52666,-12.28875 11.83008,-12.125z"/>
     <path fill="#c33600" fill-rule="nonzero" stroke-width="0.2" stroke-miterlimit="4" id="rect4246-6" d="m11.699799,25.849001l27.4513,0.00028l0,6.52307l-20.25278,0l0,15.52213l16.67349,0l0,5.41812l-16.67349,0l0,30.8475l-7.19852,0l0,-58.3111z"/>
     <path fill="#c33600" fill-rule="nonzero" stroke-width="0.2" stroke-miterlimit="4" id="rect4249-2" d="m41.724389,25.972061l6.95243,-0.12278l0,50.20477c0,1.45621 0.25973,2.32575 2.36874,2.32574l100.69356,-0.00047c5.45109,0.025 10.2888,-3.17332 10.25784,-9.6156c-0.031,-6.44229 -4.69812,-8.75501 -9.97082,-8.75501l-8.72221,0.0718l0,41.0705l-6.43718,-0.0717c0,0 0.19302,-45.05592 0.12941,-47.15956c4.60552,-0.0661 17.45954,0 17.45954,0c6.39645,0.0709 13.65218,5.92362 13.66614,14.99233c0.014,9.06871 -6.22564,15.26604 -13.52263,15.27934l-104.7741,0c-7.08884,-0.0385 -7.99157,-5.12685 -8.10072,-8.50684l0,-49.8352l0,0.12268z"/>
    </g>
   </g>
   <g transform="matrix(0.3327469,0,0,0.3327469,-13.73855,57.867) " id="g4062">
    <g id="g3990">
     <circle fill="#d3d301" id="path3821" transform="matrix(1.179859,0,0,1.179859,17.23978,-64.527995) " cx="297.560994" cy="-66.982643" r="12.5"/>
     <path fill="#000000" d="m382.694017,-146.14181c0.93404,8.93328 -7.65102,13.33152 -7.65102,13.33152c0,0 -9.32457,-2.6744 -10.24322,-11.46052c-0.93405,-8.93328 7.65101,-13.33152 7.65101,-13.33152c0,0 9.29381,2.38013 10.24323,11.46052z" id="path3980"/>
    </g>
    <circle fill="url(#radialGradient4322)" id="path3988" transform="matrix(1.179859,0,0,1.179859,17.23978,-64.527995) " cx="297.560994" cy="-66.982643" r="12.5"/>
   </g>
   <path fill="#f8c800" id="path3817" d="m73.345018,30.28907c1.68806,1.71696 7.43126,2.2434 20.05036,-0.98148c12.61911,-3.22489 22.50129,-6.99433 22.57418,-9.25401c0.14022,-4.34658 -0.6021,-6.38189 -5.18785,-6.02913c-5.46828,0.42063 -4.76722,-5.32807 -4.20637,-6.87041c0.56085,-1.54233 1.82276,-4.48679 -2.66404,-2.66403c-4.48679,1.82276 -4.48679,3.78573 -6.30955,4.90743c-5.0733,3.12203 -6.69799,1.50122 -11.32,0.2601c-6.24324,-1.67646 -9.80395,-2.53752 -12.88862,-0.99518c-3.08467,1.54233 -4.76721,6.30955 -3.22488,9.25401c1.54234,2.94446 3.50531,4.76722 2.66403,6.58998c-0.84127,1.82276 -1.17532,4.06577 0.51274,5.78272z"/>
   <path fill="none" stroke="#000000" stroke-width="1px" filter="url(#filter4092)" id="path4074" d="m73.728815,30.279422c0,0 4.235176,3.294028 18.470075,-0.705863c14.234899,-3.999887 22.822897,-8.352709 22.822897,-8.352709"/>
   <g transform="matrix(0.3327469,0,0,0.3327469,-13.73855,57.867) " id="g3995">
    <circle fill="#d3d301" id="path3819" transform="matrix(1.5821206,0,0,1.5821206,-226.56037,-153.92941) " cx="316.34217" cy="17.208851" r="12.5"/>
    <circle opacity="0.761538" fill="url(#radialGradient4324)" transform="matrix(1.5821206,0,0,1.5821206,-226.56037,-153.92941) " id="path3968" cx="316.34217" cy="17.208851" r="12.5"/>
    <path fill="#000000" d="m284.132737,-127.36793c0,10.73333 -10.74999,14.89384 -10.74999,14.89384c0,0 -10.75,-4.33728 -10.75,-14.89384c0,-10.73333 10.74999,-14.89384 10.74999,-14.89384c0,0 10.75,3.98372 10.75,14.89384z" id="rect3912"/>
   </g>
   <g transform="matrix(0.3327469,0,0,0.3327469,-13.73855,57.867) " id="g4058">
    <circle fill="#000000" id="path3984" transform="matrix(0.80652435,0.06962234,-0.06962234,0.80652435,101.55047,25.172645) " cx="287.428681" cy="-197.19844" r="1.856155"/>
    <circle fill="#000000" filter="url(#filter4050)" transform="matrix(0.80652435,0.06962234,-0.06962234,0.80652435,102.10407,25.72626) " id="path4014" cx="287.428681" cy="-197.19844" r="1.856155"/>
   </g>
   <path fill="#d4a600" id="path4098" d="m115.856948,20.46422c-1.12276,2.28714 -10.57675,5.80165 -22.46041,8.83859c-12.61911,3.22488 -18.35994,2.7048 -20.04801,0.98785c-0.0864,-0.0879 -0.17352,-0.17981 -0.24956,-0.27036c-0.43142,0.67107 -0.63013,1.65571 -0.5927,3.07791c0.14021,5.32806 6.8629,15.13998 6.8629,15.13998l9.93258,1.10928l4.56242,-2.17003c4.73644,-3.93485 10.51064,1.89115 12.89672,-3.61212c2.10217,-5.63028 8.43745,-16.54105 9.4912,-20.99023c0.24543,-1.03626 0.0705,-1.70824 -0.39514,-2.11087z"/>
   <g transform="matrix(0.3327469,0,0,0.3327469,-13.73855,57.867) " id="g4070">
    <circle fill="#000000" transform="matrix(0.80652435,0.06962234,-0.06962234,0.80652435,121.21017,19.417513) " id="path3986" cx="287.428681" cy="-197.19844" r="1.856155"/>
    <circle fill="#000000" filter="url(#filter4054)" id="path4016" transform="matrix(0.80652435,0.06962234,-0.06962234,0.80652435,121.76377,19.971128) " cx="287.428681" cy="-197.19844" r="1.856155"/>
   </g>
   <path fill="#f8c800" id="path3791" d="m127.931648,38.60742c-2.98499,-0.03468 -7.34249,1.97753 -10.50391,3.88281c1.52636,-0.57692 3.41684,-0.96227 5.78711,-1.04101c0.19774,-0.00657 0.38165,-0.00055 0.57227,0c0.42078,-0.24838 0.81995,-0.45117 1.10742,-0.45117c0.17825,0 -2.21695,2.03134 -4.01367,2.69336c-2.02815,0.74728 -3.06044,2.05412 -2.29883,3.16211c1.20039,1.74637 2.58177,0.24636 3.58789,-1.33204c1.0059,-1.57806 2.40752,-2.71023 3.86914,-2.73437c0.8364,-0.0138 0.3418,1.99334 0.3418,3.59766c0,3.20863 -1.22254,3.3168 -1.37109,5.39648c-0.13226,1.85159 0.61514,2.50791 1.81835,1.45508c0.95071,-0.83187 -0.0372,-1.69126 0.67579,-6.62305c0.45944,-3.17779 2.65909,-5.48206 5.08593,-3.15039c1.51519,1.45577 -0.48617,6.45292 -1.76757,8.34961c-0.46162,1.51042 0.11517,2.54471 1.45507,2.31836c1.9267,-0.32547 -0.09275,-2.54521 0.50977,-3.98242c2.09471,-4.99645 2.56394,-9.4141 -1.47656,-10.95899c-1.06189,-0.38665 -2.19924,-0.56832 -3.37891,-0.58203z"/>
   <path fill="#000000" d="m127.128678,39.11941c0,0 -1.58434,1.95133 -0.42237,1.99281c1.16198,0.0415 2.223,-0.57161 2.37814,-1.24513c0.15513,-0.67352 -1.95577,-0.74768 -1.95577,-0.74768z" id="path3823"/>
   <g id="g4312">
    <path fill="none" stroke="#000000" stroke-width="1px" filter="url(#filter4215)" d="m76.434623,42.632021c0,0 11.76438,-0.941151 17.999501,-0.58822c6.235121,0.352931 15.411336,1.294083 15.411336,1.294083" id="path4201"/>
    <path opacity="0.857692" fill="none" stroke="#000000" stroke-width="1px" filter="url(#filter4155)" d="m113.500778,27.143409c0,0 -10.959032,6.188839 -27.208568,7.734931" id="path4111"/>
    <path opacity="0.348462" fill="none" stroke="#000000" stroke-width="1px" filter="url(#filter4161)" id="path4159" d="m114.338809,26.595921c0,0 -7.843362,4.429342 -19.473127,5.535878"/>
   </g>
   <path opacity="0.307692" fill="#ffffff" id="path4219" d="m72.059138,14.75127c0,0 0.0832,-4.24252 4.07615,-4.40889c3.99296,-0.16638 6.07263,1.91329 6.239,2.66197c0.16638,0.74868 -0.49912,2.4956 -4.49208,2.66198c-3.99296,0.16637 -5.82307,-0.91506 -5.82307,-0.91506z"/>
   <path opacity="0.307692" fill="#ffffff" d="m112.174218,10.46889c0,0 1.52173,-2.02322 -0.29245,-3.57035c-1.81419,-1.54714 -3.55606,-1.33547 -3.90964,-1.04505c-0.35357,0.29043 -0.68369,1.35575 1.13049,2.90289c1.81419,1.54713 3.0716,1.71251 3.0716,1.71251z" id="path4221"/>
   <path fill="#c33600" fill-rule="nonzero" stroke-width="0.2" stroke-miterlimit="4" d="m69.242798,41.4477c-11.29709,-0.23625 -18.35264,7.01348 -18.30274,17.49219c0.0498,10.47871 6.60591,18.16253 18.48242,18.14063c11.87653,-0.022 18.1544,-7.5113 17.77344,-17.78711c-0.381,-10.27583 -6.65604,-17.60952 -17.95312,-17.84571zm-0.20508,5.95704c7.30342,0.16374 11.36112,5.24804 11.60742,12.37109c0.24629,7.12306 -3.81221,12.05507 -11.49023,12.07031c-7.67802,0.0152 -11.91507,-5.05271 -11.94727,-12.3164c-0.0322,-7.26369 4.52666,-12.28875 11.83008,-12.125z" id="path4222"/>
   <g transform="matrix(0.3327469,0,0,0.3327469,-13.73855,57.867) " id="g4107">
    <path fill="#f8c800" d="m243.468217,-51.61913c11.27176,0.59326 26.39967,5.48758 30.55242,4.89432c4.15276,-0.59325 7.71226,2.96625 3.55951,5.93251c-4.15276,2.96625 -5.93251,2.07638 -9.49202,-1.48313c-3.55951,-3.55951 -15.97884,0.62173 -13.01258,5.96098c2.96625,5.33926 3.76678,6.68422 7.37669,10.20511c3.67945,3.58871 1.92959,6.29715 -1.25391,8.41938c-2.87828,1.91876 -6.45925,-0.56847 -5.56846,-6.343c2.08269,-13.50103 -17.25133,-25.17583 -16.3144,-13.79308c0.92978,11.29584 -0.29663,13.19982 1.92806,17.35257c2.5057,4.67731 -4.15275,8.89877 -7.71226,4.15277c-3.5595,-4.74602 2.22469,-7.26732 2.22469,-16.75933c0,-9.49202 -7.10516,-12.81812 -16.01778,-9.34371c-8.75044,3.41119 -3.85612,4.00443 -9.3437,2.66962c-4.07606,-0.99147 -2.07638,-5.9325 5.04263,-7.119c7.11901,-1.1865 4.38467,2.60653 14.23803,-1.33482c6.67407,-2.66962 13.79308,-3.41119 13.79308,-3.41119z" id="path3787"/>
    <path fill="#000000" d="m248.362547,-51.47082c0,0 -8.3055,1.48313 -4.44938,3.26288c3.85614,1.77976 8.30551,1.18651 9.78864,-0.88987c1.48313,-2.07638 -5.33926,-2.37301 -5.33926,-2.37301z" id="path3789"/>
   </g>
   <path fill="#c33600" fill-rule="nonzero" stroke-width="0.2" stroke-miterlimit="4" d="m99.090658,41.44828c7.68807,-0.25538 11.01817,4.03783 11.01817,4.03783l-2.3038,4.50743c0,0 -4.66291,-2.56867 -8.36379,-2.58826c-0.92522,-0.005 -6.30263,-0.0179 -6.16109,4.06526c0.2319,6.68981 17.77989,4.64707 17.51928,16.82085c-0.0269,1.25412 -0.64156,8.68248 -12.01732,8.78889c-5.89572,0.0551 -15.15781,-5.37194 -15.91541,-5.51354c-0.37881,-0.0708 2.35994,-4.26153 2.35994,-4.26153c0,0 8.57735,4.43591 13.08648,4.54007c4.50914,0.10416 6.36556,-3.16826 6.35935,-4.15812c-0.0412,-6.56128 -17.01572,-5.07775 -17.30114,-16.39147c-0.0911,-3.61114 1.62483,-9.51208 11.71933,-9.84741z" id="path4291"/>
  </g>
 </g>
</svg>